<?xml version="1.0" encoding="UTF-8"?>
<svg version="1.1" xmlns="http://www.w3.org/2000/svg" width="1024" height="1024">
<path d="M0 0 C337.92 0 675.84 0 1024 0 C1024 337.92 1024 675.84 1024 1024 C686.08 1024 348.16 1024 0 1024 C0 686.08 0 348.16 0 0 Z " fill="#000000" transform="translate(0,0)"/>
<path d="M0 0 C1.47122642 0.00056958 1.47122642 0.00056958 2.97217458 0.00115067 C4.0993024 -0.00084038 5.22643022 -0.00283143 6.38771343 -0.00488281 C7.64157689 -0.00196997 8.89544035 0.00094287 10.18729967 0.00394398 C11.50714151 0.00308955 12.82698334 0.00223513 14.18682039 0.00135481 C17.86728021 -0.00089264 21.54771121 0.00313454 25.22816736 0.00813287 C29.19069533 0.01243362 33.15322156 0.01099122 37.11575121 0.0102306 C43.98674782 0.00970513 50.85773496 0.01285437 57.72872919 0.01846844 C67.66314976 0.02658027 77.59756574 0.02919833 87.53198927 0.03045643 C103.64821004 0.03264745 119.76442576 0.03930889 135.88064378 0.04875904 C151.54014874 0.05793187 167.19965232 0.06501333 182.85915941 0.06926686 C183.82369626 0.06952958 184.78823311 0.0697923 185.78199834 0.07006299 C190.62058272 0.07136798 195.4591671 0.0726317 200.29775149 0.07387489 C240.46674321 0.08424906 280.6357293 0.10186873 320.80471605 0.1241985 C320.92951341 1.00680348 321.05431078 1.88940846 321.18288988 2.79875904 C321.4384868 4.54346485 321.4384868 4.54346485 321.6992473 6.32341725 C321.86529466 7.47414723 322.03134203 8.62487721 322.20242113 9.81047779 C323.84621233 18.85432781 328.50858036 26.08807188 335.8242473 31.663261 C343.5294504 36.70184505 349.25412342 37.2559628 358.80471605 38.1241985 C358.80471605 142.4041985 358.80471605 246.6841985 358.80471605 354.1241985 C354.51471605 354.7841985 350.22471605 355.4441985 345.80471605 356.1241985 C337.33201398 358.91790026 330.69599949 363.62815929 325.80471605 371.1241985 C322.22803722 378.25670089 321.62089391 383.96241988 320.80471605 392.1241985 C214.21471605 392.1241985 107.62471605 392.1241985 -2.19528395 392.1241985 C-2.69028395 387.1741985 -2.69028395 387.1741985 -3.19528395 382.1241985 C-6.54345904 370.94644473 -11.91807148 363.72688247 -22.19528395 358.1241985 C-29.20584905 355.51785943 -29.20584905 355.51785943 -41.19528395 355.1241985 C-41.19528395 250.5141985 -41.19528395 145.9041985 -41.19528395 38.1241985 C-36.24528395 37.4641985 -31.29528395 36.8041985 -26.19528395 36.1241985 C-17.29570573 32.58459352 -10.0937421 27.55383039 -5.96872145 18.65154225 C-4.53119131 13.95415841 -4.10303194 9.09021917 -3.5898152 4.22185475 C-3.07425306 0.1739263 -3.07425306 0.1739263 0 0 Z " fill="#DDB35E" transform="translate(353.19528394937515,306.8758015036583)"/>
<path d="M0 0 C26.4 0 52.8 0 80 0 C80.495 6.93 80.495 6.93 81 14 C84.08735102 21.93890263 88.28257944 27.61862126 96.1328125 31.23828125 C99.71349662 32.69902059 102.8517079 33.24661124 106.6875 33.5625 C108.45833333 33.70833333 110.22916667 33.85416667 112 34 C111.35606473 51.15149784 109.88187152 68.22616023 108.38857651 85.31951904 C108.18573672 87.64521724 107.98421192 89.97102579 107.78311157 92.296875 C106.14802185 111.20370699 104.48037486 130.10738239 102.6875 149 C102.60664154 149.85668274 102.52578308 150.71336548 102.44247437 151.5960083 C102.21834097 153.96011711 101.99087874 156.32387371 101.76171875 158.6875 C101.5754895 160.61142578 101.5754895 160.61142578 101.38549805 162.57421875 C101.03038388 165.72998952 100.52207992 168.86752051 100 172 C60.07 172 20.14 172 -21 172 C-21.66 162.76 -22.32 153.52 -23 144 C-23.66680772 136.5789291 -24.33942355 129.16187492 -25.05996704 121.74633789 C-25.38638596 118.38267042 -25.70787227 115.01856142 -26.02807617 111.65429688 C-26.4683889 107.02854842 -26.90959691 102.40288792 -27.35205078 97.77734375 C-27.5680524 95.51823094 -27.78403576 93.25911638 -28 91 C-28.10350769 89.91734863 -28.20701538 88.83469727 -28.31365967 87.71923828 C-28.89883015 81.58943494 -29.47779704 75.4591033 -30.0479126 69.32788086 C-30.22170494 67.4704076 -30.39770225 65.61313907 -30.57611084 63.75610352 C-31.53205967 53.7996166 -32.27524248 44.01293614 -32 34 C-31.08412109 33.887771 -30.16824219 33.77554199 -29.22460938 33.65991211 C-18.00239483 32.23334501 -11.77716377 29.63303989 -4.3125 21.0625 C-0.0550805 14.37226936 -0.61307473 7.96997144 0 0 Z " fill="#EACB70" transform="translate(472,118)"/>
<path d="M0 0 C30.36 0 60.72 0 92 0 C92 6.16974809 91.96284281 11.5421111 91.23046875 17.54296875 C91.14984192 18.22137314 91.06921509 18.89977753 90.98614502 19.59873962 C90.81385353 21.04603127 90.63913469 22.4930358 90.46212769 23.9397583 C89.98753383 27.82416058 89.53265597 31.71086274 89.078125 35.59765625 C88.98554916 36.38718689 88.89297333 37.17671753 88.79759216 37.99017334 C87.90311206 45.69234151 87.1572599 53.40464855 86.4375 61.125 C85.47327574 71.41528494 84.38931442 81.67851916 83.08959961 91.93212891 C81.87419427 101.61218024 80.97232564 111.2767436 80 121 C57.56 121 35.12 121 12 121 C8.55741797 99.19698045 8.55741797 99.19698045 7.93359375 91.640625 C7.81823524 90.34816864 7.81823524 90.34816864 7.70054626 89.02960205 C7.54131566 87.24188813 7.38465649 85.45394318 7.23065186 83.66577148 C6.84855358 79.24964968 6.43978035 74.83597923 6.03515625 70.421875 C5.87459693 68.65837294 5.71411549 66.8948638 5.55371094 65.13134766 C5.39009027 63.33755449 5.22635127 61.54377212 5.0625 59.75 C4.93518494 58.35548615 4.93518494 58.35548615 4.80529785 56.93280029 C3.69934209 44.87550632 2.53210602 32.84190873 0.86352539 20.84667969 C-0.08360488 13.71362557 0 7.39546527 0 0 Z " fill="#010100" transform="translate(466,160)"/>
</svg>
