<?xml version="1.0" encoding="UTF-8"?>
<svg version="1.1" xmlns="http://www.w3.org/2000/svg" width="1024" height="1024">
<path d="M0 0 C337.92 0 675.84 0 1024 0 C1024 337.92 1024 675.84 1024 1024 C686.08 1024 348.16 1024 0 1024 C0 686.08 0 348.16 0 0 Z " fill="#000000" transform="translate(0,0)"/>
<path d="M0 0 C1.47122642 0.00056958 1.47122642 0.00056958 2.97217458 0.00115067 C4.0993024 -0.00084038 5.22643022 -0.00283143 6.38771343 -0.00488281 C7.64157689 -0.00196997 8.89544035 0.00094287 10.18729967 0.00394398 C11.50714151 0.00308955 12.82698334 0.00223513 14.18682039 0.00135481 C17.86728021 -0.00089264 21.54771121 0.00313454 25.22816736 0.00813287 C29.19069533 0.01243362 33.15322156 0.01099122 37.11575121 0.0102306 C43.98674782 0.00970513 50.85773496 0.01285437 57.72872919 0.01846844 C67.66314976 0.02658027 77.59756574 0.02919833 87.53198927 0.03045643 C103.64821004 0.03264745 119.76442576 0.03930889 135.88064378 0.04875904 C151.54014874 0.05793187 167.19965232 0.06501333 182.85915941 0.06926686 C183.82369626 0.06952958 184.78823311 0.0697923 185.78199834 0.07006299 C190.62058272 0.07136798 195.4591671 0.0726317 200.29775149 0.07387489 C240.46674321 0.08424906 280.6357293 0.10186873 320.80471605 0.1241985 C320.92951341 1.00680348 321.05431078 1.88940846 321.18288988 2.79875904 C321.4384868 4.54346485 321.4384868 4.54346485 321.6992473 6.32341725 C321.86529466 7.47414723 322.03134203 8.62487721 322.20242113 9.81047779 C323.84621233 18.85432781 328.50858036 26.08807188 335.8242473 31.663261 C343.5294504 36.70184505 349.25412342 37.2559628 358.80471605 38.1241985 C358.80471605 142.4041985 358.80471605 246.6841985 358.80471605 354.1241985 C354.51471605 354.7841985 350.22471605 355.4441985 345.80471605 356.1241985 C337.33201398 358.91790026 330.69599949 363.62815929 325.80471605 371.1241985 C322.22803722 378.25670089 321.62089391 383.96241988 320.80471605 392.1241985 C214.21471605 392.1241985 107.62471605 392.1241985 -2.19528395 392.1241985 C-2.69028395 387.1741985 -2.69028395 387.1741985 -3.19528395 382.1241985 C-6.54345904 370.94644473 -11.91807148 363.72688247 -22.19528395 358.1241985 C-29.20584905 355.51785943 -29.20584905 355.51785943 -41.19528395 355.1241985 C-41.19528395 250.5141985 -41.19528395 145.9041985 -41.19528395 38.1241985 C-36.24528395 37.4641985 -31.29528395 36.8041985 -26.19528395 36.1241985 C-17.29570573 32.58459352 -10.0937421 27.55383039 -5.96872145 18.65154225 C-4.53119131 13.95415841 -4.10303194 9.09021917 -3.5898152 4.22185475 C-3.07425306 0.1739263 -3.07425306 0.1739263 0 0 Z " fill="#DDB35E" transform="translate(353.19528394937515,306.8758015036583)"/>
<path d="M0 0 C26.4 0 52.8 0 80 0 C80.495 6.93 80.495 6.93 81 14 C84.08735102 21.93890263 88.28257944 27.61862126 96.1328125 31.23828125 C99.71349662 32.69902059 102.8517079 33.24661124 106.6875 33.5625 C108.45833333 33.70833333 110.22916667 33.85416667 112 34 C111.35606473 51.15149784 109.88187152 68.22616023 108.38857651 85.31951904 C108.18573672 87.64521724 107.98421192 89.97102579 107.78311157 92.296875 C106.14802185 111.20370699 104.48037486 130.10738239 102.6875 149 C102.60664154 149.85668274 102.52578308 150.71336548 102.44247437 151.5960083 C102.21834097 153.96011711 101.99087874 156.32387371 101.76171875 158.6875 C101.5754895 160.61142578 101.5754895 160.61142578 101.38549805 162.57421875 C101.03038388 165.72998952 100.52207992 168.86752051 100 172 C60.07 172 20.14 172 -21 172 C-21.66 162.76 -22.32 153.52 -23 144 C-23.66680772 136.5789291 -24.33942355 129.16187492 -25.05996704 121.74633789 C-25.38638596 118.38267042 -25.70787227 115.01856142 -26.02807617 111.65429688 C-26.4683889 107.02854842 -26.90959691 102.40288792 -27.35205078 97.77734375 C-27.5680524 95.51823094 -27.78403576 93.25911638 -28 91 C-28.10350769 89.91734863 -28.20701538 88.83469727 -28.31365967 87.71923828 C-28.89883015 81.58943494 -29.47779704 75.4591033 -30.0479126 69.32788086 C-30.22170494 67.4704076 -30.39770225 65.61313907 -30.57611084 63.75610352 C-31.53205967 53.7996166 -32.27524248 44.01293614 -32 34 C-31.08412109 33.887771 -30.16824219 33.77554199 -29.22460938 33.65991211 C-18.00239483 32.23334501 -11.77716377 29.63303989 -4.3125 21.0625 C-0.0550805 14.37226936 -0.61307473 7.96997144 0 0 Z " fill="#EACB70" transform="translate(472,118)"/>
<path d="M0 0 C30.36 0 60.72 0 92 0 C92 6.16974809 91.96284281 11.5421111 91.23046875 17.54296875 C91.14984192 18.22137314 91.06921509 18.89977753 90.98614502 19.59873962 C90.81385353 21.04603127 90.63913469 22.4930358 90.46212769 23.9397583 C89.98753383 27.82416058 89.53265597 31.71086274 89.078125 35.59765625 C88.98554916 36.38718689 88.89297333 37.17671753 88.79759216 37.99017334 C87.90311206 45.69234151 87.1572599 53.40464855 86.4375 61.125 C85.47327574 71.41528494 84.38931442 81.67851916 83.08959961 91.93212891 C81.87419427 101.61218024 80.97232564 111.2767436 80 121 C57.56 121 35.12 121 12 121 C8.55741797 99.19698045 8.55741797 99.19698045 7.93359375 91.640625 C7.81823524 90.34816864 7.81823524 90.34816864 7.70054626 89.02960205 C7.54131566 87.24188813 7.38465649 85.45394318 7.23065186 83.66577148 C6.84855358 79.24964968 6.43978035 74.83597923 6.03515625 70.421875 C5.87459693 68.65837294 5.71411549 66.8948638 5.55371094 65.13134766 C5.39009027 63.33755449 5.22635127 61.54377212 5.0625 59.75 C4.93518494 58.35548615 4.93518494 58.35548615 4.80529785 56.93280029 C3.69934209 44.87550632 2.53210602 32.84190873 0.86352539 20.84667969 C-0.08360488 13.71362557 0 7.39546527 0 0 Z " fill="#010100" transform="translate(466,160)"/>
<path d="M0 0 C0 103.62 0 207.24 0 314 C-2.97 313.67 -5.94 313.34 -9 313 C-9 312.34 -9 311.68 -9 311 C-10.0209375 311.0928125 -10.0209375 311.0928125 -11.0625 311.1875 C-14 311 -14 311 -21 308 C-21 208.67 -21 109.34 -21 7 C-17.04 6.01 -13.08 5.02 -9 4 C-0.42857143 0 -0.42857143 0 0 0 Z " fill="#080401" transform="translate(341,346)"/>
<path d="M0 0 C106.26 0 212.52 0 322 0 C321.34 1.32 320.68 2.64 320 4 C319.28793893 5.80299238 318.60179651 7.61636776 317.9375 9.4375 C317.59589844 10.36433594 317.25429688 11.29117188 316.90234375 12.24609375 C315.83010853 15.33397446 315.83010853 15.33397446 315 20 C213.36 20 111.72 20 7 20 C6.34 16.7 5.68 13.4 5 10 C3.83398565 7.40082767 3.83398565 7.40082767 2.375 5.5 C0 2.15028902 0 2.15028902 0 0 Z " fill="#060401" transform="translate(351,671)"/>
<path d="M0 0 C101.64 0 203.28 0 308 0 C309.98 6.435 309.98 6.435 312 13 C312.99 14.65 313.98 16.3 315 18 C315 18.66 315 19.32 315 20 C209.07 20 103.14 20 -6 20 C-4 15 -4 15 -3.18359375 13.0078125 C-2.93738281 12.38648438 -2.69117188 11.76515625 -2.4375 11.125 C-2.18871094 10.50882812 -1.93992187 9.89265625 -1.68359375 9.2578125 C-0.77469148 6.25583815 -0.44357532 3.10502726 0 0 Z " fill="#030200" transform="translate(358,315)"/>
<path d="M0 0 C4.23341999 1.058355 8.17061442 2.52073313 12.24609375 4.0625 C15.32906197 5.17878442 15.32906197 5.17878442 20 6 C20 105.33 20 204.66 20 307 C12.575 308.98 12.575 308.98 5 311 C3.35 311.66 1.7 312.32 0 313 C0 209.71 0 106.42 0 0 Z " fill="#030100" transform="translate(684,347)"/>
<path d="M0 0 C2.92016961 2.92016961 3.69067748 6.60457001 5 10.4375 C18.28902756 47.7857241 45.67984572 83.69489609 81.75 101.34570312 C94.1918774 107.24131212 106.4188822 112.46998551 120 115 C117.06719728 117.93280272 113.39032124 118.49206012 109.5 119.625 C87.26967837 126.39451877 68.62112489 136.9503286 51 152 C50.3706958 152.52851562 49.7413916 153.05703125 49.09301758 153.6015625 C44.58064666 157.41097734 40.77018347 161.45456235 37 166 C36.38382812 166.72832031 35.76765625 167.45664062 35.1328125 168.20703125 C19.46092139 187.18323675 9.77815444 208.17408916 1 231 C0.67 231 0.34 231 0 231 C0 196.02 0 161.04 0 125 C6.93 127.97 6.93 127.97 14 131 C39.43797624 138.74199277 65.7623937 133.63155705 89 122 C92.41131209 120.1098927 95.73960359 118.13963515 99 116 C89.00606548 107.39881718 75.50153199 103.47337049 63 100 C61.7728125 99.63261719 60.545625 99.26523437 59.28125 98.88671875 C40.63617213 94.33555801 21.74341547 99.01006896 4.51171875 106.046875 C2 107 2 107 0 107 C0 71.69 0 36.38 0 0 Z " fill="#040200" transform="translate(349,388)"/>
<path d="M0 0 C0.33 0 0.66 0 1 0 C1 34.98 1 69.96 1 106 C-2.707039 105.2585922 -5.26573214 104.57431623 -8.625 103.125 C-30.94825215 93.98974056 -56.03235986 94.2926625 -78.16967773 103.48144531 C-90.72498538 107.97206485 -90.72498538 107.97206485 -100 116 C-99.33226562 116.25007813 -98.66453125 116.50015625 -97.9765625 116.7578125 C-95.04217999 117.98239733 -92.25578794 119.3631898 -89.43139648 120.81762695 C-67.63887556 132.02306541 -42.04470132 137.84446632 -17.796875 130.99609375 C-13.64510378 129.51746015 -9.5809703 127.88700163 -5.55859375 126.0859375 C-3 125 -3 125 1 124 C1 158.65 1 193.3 1 229 C-1.07710979 226.92289021 -1.62474588 225.72819932 -2.62890625 223.02734375 C-3.09103516 221.81401367 -3.09103516 221.81401367 -3.5625 220.57617188 C-4.0575 219.2700293 -4.0575 219.2700293 -4.5625 217.9375 C-13.24584878 195.68441614 -25.65891998 176.43899633 -42 159 C-42.44472656 158.52127441 -42.88945313 158.04254883 -43.34765625 157.54931641 C-63.72292668 135.77643864 -89.66926511 123.9977536 -118 116 C-118 115.34 -118 114.68 -118 114 C-116.76507812 113.6596875 -115.53015625 113.319375 -114.2578125 112.96875 C-72.03911817 101.0208553 -38.49632173 75.75253503 -16.75 37.25 C-10.22011658 25.31056288 -5.02528984 12.63208344 0 0 Z " fill="#040200" transform="translate(675,389)"/>
<path d="M0 0 C25.80919992 -1.75971818 56.61122195 16.57107577 75.43359375 32.9453125 C107.61689566 61.66605862 127.55981695 102.3188891 133 145 C133 147.31 133 149.62 133 152 C117.49 152 101.98 152 86 152 C86.12375 145.750625 86.2475 139.50125 86.375 133.0625 C86.50659155 116.50487862 85.34402254 101.80761208 80 86 C79.68023193 84.99912354 79.68023193 84.99912354 79.35400391 83.97802734 C78.13306826 80.19690082 76.66362443 76.60606859 75 73 C74.71930664 72.37867188 74.43861328 71.75734375 74.14941406 71.1171875 C69.77884269 61.53430509 64.73735429 53.15463133 58 45 C57.52481934 44.41943848 57.04963867 43.83887695 56.56005859 43.24072266 C50.84110257 36.28115628 45.14757303 29.54301582 38 24 C37.10925781 23.29617188 36.21851563 22.59234375 35.30078125 21.8671875 C24.24948796 13.34396784 12.79196786 6.52713505 0 1 C0 0.67 0 0.34 0 0 Z " fill="#040200" transform="translate(543,511)"/>
<path d="M0 0 C15.51 0 31.02 0 47 0 C46.75 19.25 46.75 19.25 46.63964844 25.18457031 C46.25297319 61.50340082 60.79894143 93.49574047 85 120 C85.68835938 120.76054687 86.37671875 121.52109375 87.0859375 122.3046875 C99.75486492 135.6150796 115.72216288 143.9438501 132 152 C132 152.33 132 152.66 132 153 C104.4248061 152.88790572 76.87852144 137.44201353 57.2265625 119.0703125 C55.20653393 117.19204032 53.12707321 115.44169981 51 113.6875 C23.75654569 89.8426255 9.22975309 52.35366781 2.1875 17.8125 C1.85842651 16.19867432 1.85842651 16.19867432 1.52270508 14.55224609 C1.32314209 13.5308252 1.1235791 12.5094043 0.91796875 11.45703125 C0.74031982 10.54928955 0.5626709 9.64154785 0.37963867 8.70629883 C0 6 0 6 0 0 Z " fill="#030200" transform="translate(349,344)"/>
<path d="M0 0 C15.18 0 30.36 0 46 0 C44.82042415 15.33448608 44.82042415 15.33448608 43.4375 21.3125 C43.26677979 22.05411377 43.09605957 22.79572754 42.92016602 23.55981445 C34.76281199 57.31902929 19.44338753 89.88232003 -6 114 C-7.2375 115.2684375 -7.2375 115.2684375 -8.5 116.5625 C-26.23772248 133.85677942 -47.31310992 145.01440863 -71.25 151.25 C-71.91201416 151.42563477 -72.57402832 151.60126953 -73.25610352 151.78222656 C-77.58471244 152.85691568 -81.55003733 153.16139761 -86 153 C-83.73269581 151.48846387 -81.54831311 150.17808746 -79.15625 148.8984375 C-67.10240676 142.38098275 -56.36818143 135.44934595 -46.2890625 126.078125 C-44 124 -44 124 -41.4765625 122.046875 C-36.96596651 118.31887453 -33.60403781 113.58160363 -30 109 C-29.25234375 108.07960938 -28.5046875 107.15921875 -27.734375 106.2109375 C-12.77644868 87.22587717 -3.98067106 63.89463577 -1 40 C-0.9064624 39.37005127 -0.8129248 38.74010254 -0.71655273 38.09106445 C0.32279458 30.40462273 0.10835733 22.67683695 0.0625 14.9375 C0.0315625 7.5434375 0.0315625 7.5434375 0 0 Z " fill="#020100" transform="translate(630,344)"/>
<path d="M0 0 C0.33 0 0.66 0 1 0 C1.17015625 1.12535156 1.3403125 2.25070312 1.515625 3.41015625 C7.66906104 42.89254049 23.90820108 77.88518544 56.5625 102.0625 C64.14121714 107.52746141 72.45681642 111.29726426 81 115 C74.79644899 82.84692326 62.46682102 52.96511778 41 28 C40.18015625 27.04609375 39.3603125 26.0921875 38.515625 25.109375 C32.73929572 18.54021621 26.52365638 12.80551123 19.75 7.27734375 C17.70088522 5.58042057 15.85249261 3.89369695 14 2 C20.04573062 3.846648 25.61909845 6.07274536 31.1875 9.0625 C31.9187207 9.4538916 32.64994141 9.8452832 33.40332031 10.24853516 C45.71914941 16.99470033 56.53483885 25.69449184 67 35 C67.72703125 35.64195312 68.4540625 36.28390625 69.203125 36.9453125 C89.05210018 55.58398432 99.57573145 81.64536431 104 108 C104.26018921 109.40862305 104.26018921 109.40862305 104.52563477 110.84570312 C104.97796482 113.8534768 105.12921405 116.66500305 105.1328125 119.703125 C105.13410156 120.76660156 105.13539063 121.83007812 105.13671875 122.92578125 C105.13285156 124.02277344 105.12898437 125.11976563 105.125 126.25 C105.12886719 127.33152344 105.13273438 128.41304687 105.13671875 129.52734375 C105.1145739 147.8854261 105.1145739 147.8854261 103 150 C82.35856807 152.15966692 60.13769571 143.38066392 44 131 C27.58434902 117.35543913 18.63571244 100.61252039 11 81 C10.50628906 79.78183594 10.01257813 78.56367187 9.50390625 77.30859375 C2.82698959 59.3578801 0.14839842 39.10217503 0 20 C-0.00837891 19.11151367 -0.01675781 18.22302734 -0.02539062 17.30761719 C-0.06893784 11.53761089 -0.05420545 5.76986889 0 0 Z " fill="#040301" transform="translate(517,513)"/>
<path d="M0 0 C0.33 0 0.66 0 1 0 C2.24080655 43.86092077 -4.9744806 92.10363376 -36.23046875 125.328125 C-53.28908289 141.78523653 -76.31740485 151.35791543 -100.13671875 151.16796875 C-102 151 -102 151 -103 150 C-105.46991918 132.92227311 -105.22802758 114.76361372 -101 98 C-100.82839355 97.30648437 -100.65678711 96.61296875 -100.47998047 95.8984375 C-91.44071852 60.35531635 -68.72937851 32.81985777 -37.51953125 13.98828125 C-31.18385911 10.3363816 -24.57713904 7.18755544 -18 4 C-17.24847656 3.57460938 -16.49695313 3.14921875 -15.72265625 2.7109375 C-14 2 -14 2 -11 3 C-11.60585938 3.40089844 -12.21171875 3.80179688 -12.8359375 4.21484375 C-19.39634648 8.66582892 -25.24766252 13.55325545 -31 19 C-32.2375 20.14082031 -32.2375 20.14082031 -33.5 21.3046875 C-49.69295317 36.73859599 -62.14580216 58.16140574 -70 79 C-70.26506348 79.70302246 -70.53012695 80.40604492 -70.80322266 81.13037109 C-75.0142988 92.5350517 -77.75083512 104.06619574 -80 116 C-46.36825581 100.17849616 -22.84368277 76.81395401 -9.73046875 41.58984375 C-5.01562205 28.04356215 -1.87894556 14.21570653 0 0 Z " fill="#040301" transform="translate(507,512)"/>
<path d="M0 0 C42.24 0 84.48 0 128 0 C124.98981762 2.25763679 122.06751413 4.2282457 118.875 6.1875 C94.07928791 21.89145099 79.56558902 45.38116565 71 73 C70.80035645 73.64130859 70.60071289 74.28261719 70.39501953 74.94335938 C68.16251093 82.2154971 66.31223616 89.50644085 65 97 C62.37951309 94.37951309 62.36183454 92.50730509 61.6875 88.875 C56.92116768 65.6361658 47.58638997 43.08144449 32 25 C31.40960938 24.25363281 30.81921875 23.50726563 30.2109375 22.73828125 C22.27618912 13.0646412 11.39612658 5.98908767 0 1 C0 0.67 0 0.34 0 0 Z " fill="#020100" transform="translate(448,344)"/>
<path d="M0 0 C-1 3 -1 3 -3.046875 4.24609375 C-6.01153415 5.55277156 -8.99180766 6.79672306 -12 8 C-12.91652344 8.39960938 -13.83304688 8.79921875 -14.77734375 9.2109375 C-36.5507423 17.45268031 -60.60804352 10.90478449 -81 2 C-81 1.34 -81 0.68 -81 0 C-72.55575909 -4.28356504 -64.17768206 -6.8380518 -55 -9 C-54.19046875 -9.1959375 -53.3809375 -9.391875 -52.546875 -9.59375 C-34.71726973 -12.43773612 -15.97750819 -7.9887541 0 0 Z " fill="#070401" transform="translate(673,503)"/>
<path d="M0 0 C0.495 1.485 0.495 1.485 1 3 C-22.42560033 12.63886421 -46.72361293 17.72106409 -71 8 C-74.13853553 6.51120751 -77.11344526 4.93259363 -80 3 C-62.85797866 -17.28070131 -20.85258328 -10.28125822 0 0 Z " fill="#060301" transform="translate(431,502)"/>
<path d="M0 0 C20.79 0 41.58 0 63 0 C63.99 3.465 63.99 3.465 65 7 C67.01699252 13.16099534 69.28191988 17.94375909 73.828125 22.625 C75 24 75 24 75 26 C46.29 26 17.58 26 -12 26 C-10.02 23.36 -8.04 20.72 -6 18 C-2.30785918 11.64131303 -1.53316139 7.66580693 0 0 Z " fill="#060502" transform="translate(480,126)"/>
</svg>
